<?xml version="1.0" encoding="UTF-8" standalone="no"?>
<!-- Generator: Adobe Illustrator 19.0.0, SVG Export Plug-In . SVG Version: 6.00 Build 0)  -->

<svg
   xmlns:dc="http://purl.org/dc/elements/1.1/"
   xmlns:cc="http://creativecommons.org/ns#"
   xmlns:rdf="http://www.w3.org/1999/02/22-rdf-syntax-ns#"
   xmlns:svg="http://www.w3.org/2000/svg"
   xmlns="http://www.w3.org/2000/svg"
   xmlns:sodipodi="http://sodipodi.sourceforge.net/DTD/sodipodi-0.dtd"
   xmlns:inkscape="http://www.inkscape.org/namespaces/inkscape"
   version="1.1"
   id="Capa_1"
   x="0px"
   y="0px"
   viewBox="0 0 58 58"
   style="enable-background:new 0 0 58 58;"
   xml:space="preserve"
   inkscape:version="0.48.4 r9939"
   width="100%"
   height="100%"
   sodipodi:docname="abrir.svg"
   inkscape:export-filename="/home/atila/NetBeansProjects/sanusb-java-gui/img-src/abrir.png"
   inkscape:export-xdpi="37.240002"
   inkscape:export-ydpi="37.240002"><metadata
     id="metadata55"><rdf:RDF><cc:Work
         rdf:about=""><dc:format>image/svg+xml</dc:format><dc:type
           rdf:resource="http://purl.org/dc/dcmitype/StillImage" /><dc:title></dc:title></cc:Work></rdf:RDF></metadata><defs
     id="defs53" /><sodipodi:namedview
     pagecolor="#ffffff"
     bordercolor="#666666"
     borderopacity="1"
     objecttolerance="10"
     gridtolerance="10"
     guidetolerance="10"
     inkscape:pageopacity="0"
     inkscape:pageshadow="2"
     inkscape:window-width="640"
     inkscape:window-height="480"
     id="namedview51"
     showgrid="false"
     inkscape:zoom="4.0689655"
     inkscape:cx="29"
     inkscape:cy="29"
     inkscape:window-x="0"
     inkscape:window-y="0"
     inkscape:window-maximized="0"
     inkscape:current-layer="Capa_1" /><path
     style="fill:#EFCE4A;"
     d="M46.324,58H1.565c-1.03,0-1.779-0.978-1.51-1.973l10.166-27.871C10.405,27.474,11.024,27,11.731,27  H56.49c1.03,0,1.51,0.984,1.51,1.973L47.834,56.844C47.65,57.526,47.031,58,46.324,58z"
     id="path3" /><path
     style="fill:#F4EFDC;"
     d="M10.221,28.156C10.405,27.474,11.024,27,11.731,27H46V15L31,0H8v34.245L10.221,28.156z"
     id="path5" /><g
     id="g7"><path
       style="fill:#EBBA16;"
       d="M50.268,18H46v9h6v-7.268C52,18.775,51.224,18,50.268,18z"
       id="path9" /><path
       style="fill:#EBBA16;"
       d="M8,11H1.732C0.776,11,0,11.775,0,12.732V55.46c0.069,0.002,0.138,0.006,0.205,0.01L8,34.212V11z"
       id="path11" /></g><path
     style="fill:#CEC9AE;"
     d="M25,16H15c-0.552,0-1-0.447-1-1s0.448-1,1-1h10c0.552,0,1,0.447,1,1S25.552,16,25,16z"
     id="path13" /><path
     style="fill:#CEC9AE;"
     d="M25,9H15c-0.552,0-1-0.447-1-1s0.448-1,1-1h10c0.552,0,1,0.447,1,1S25.552,9,25,9z"
     id="path15" /><path
     style="fill:#CEC9AE;"
     d="M39,23H15c-0.552,0-1-0.447-1-1s0.448-1,1-1h24c0.552,0,1,0.447,1,1S39.552,23,39,23z"
     id="path17" /><polygon
     style="fill:#D1BF86;"
     points="31,15 46,15 31,0 "
     id="polygon19" /><g
     id="g21" /><g
     id="g23" /><g
     id="g25" /><g
     id="g27" /><g
     id="g29" /><g
     id="g31" /><g
     id="g33" /><g
     id="g35" /><g
     id="g37" /><g
     id="g39" /><g
     id="g41" /><g
     id="g43" /><g
     id="g45" /><g
     id="g47" /><g
     id="g49" /></svg>