<?xml version="1.0" encoding="UTF-8" standalone="no"?>
<!-- Generator: Adobe Illustrator 19.0.0, SVG Export Plug-In . SVG Version: 6.00 Build 0)  -->

<svg
   xmlns:dc="http://purl.org/dc/elements/1.1/"
   xmlns:cc="http://creativecommons.org/ns#"
   xmlns:rdf="http://www.w3.org/1999/02/22-rdf-syntax-ns#"
   xmlns:svg="http://www.w3.org/2000/svg"
   xmlns="http://www.w3.org/2000/svg"
   xmlns:xlink="http://www.w3.org/1999/xlink"
   xmlns:sodipodi="http://sodipodi.sourceforge.net/DTD/sodipodi-0.dtd"
   xmlns:inkscape="http://www.inkscape.org/namespaces/inkscape"
   version="1.1"
   id="Capa_1"
   x="0px"
   y="0px"
   viewBox="0 0 58 58"
   style="enable-background:new 0 0 58 58;"
   xml:space="preserve"
   inkscape:version="0.48.4 r9939"
   width="100%"
   height="100%"
   sodipodi:docname="gravar.svg"
   inkscape:export-filename="/home/atila/NetBeansProjects/sanusb-java-gui/img-src/gravar.png"
   inkscape:export-xdpi="37.240002"
   inkscape:export-ydpi="37.240002"><metadata
     id="metadata43"><rdf:RDF><cc:Work
         rdf:about=""><dc:format>image/svg+xml</dc:format><dc:type
           rdf:resource="http://purl.org/dc/dcmitype/StillImage" /></cc:Work></rdf:RDF></metadata><defs
     id="defs41" /><sodipodi:namedview
     pagecolor="#ffffff"
     bordercolor="#666666"
     borderopacity="1"
     objecttolerance="10"
     gridtolerance="10"
     guidetolerance="10"
     inkscape:pageopacity="0"
     inkscape:pageshadow="2"
     inkscape:window-width="820"
     inkscape:window-height="480"
     id="namedview39"
     showgrid="false"
     inkscape:zoom="4.0689655"
     inkscape:cx="29"
     inkscape:cy="29"
     inkscape:window-x="0"
     inkscape:window-y="0"
     inkscape:window-maximized="0"
     inkscape:current-layer="Capa_1" /><polygon
     style="fill:#3083C9;"
     points="36,17 22,17 8,17 8,58 50,58 50,17 "
     id="polygon3" /><path
     sodipodi:type="inkscape:offset"
     inkscape:radius="1.4875269"
     inkscape:original="M 28.90625 -0.03125 A 1.0001 1.0001 0 0 0 28.78125 0 A 1.0001 1.0001 0 0 0 28 1 L 28 36.625 L 19.6875 28.3125 A 1.0001 1.0001 0 1 0 18.28125 29.71875 L 28.21875 39.65625 L 28.25 39.71875 A 1.0001 1.0001 0 0 0 28.28125 39.71875 A 1.0001 1.0001 0 0 0 28.40625 39.84375 A 1.0001 1.0001 0 0 0 28.4375 39.84375 A 1.0001 1.0001 0 0 0 28.5 39.875 A 1.0001 1.0001 0 0 0 28.53125 39.90625 A 1.0001 1.0001 0 0 0 28.59375 39.9375 A 1.0001 1.0001 0 0 0 28.625 39.9375 A 1.0001 1.0001 0 0 0 28.6875 39.96875 A 1.0001 1.0001 0 0 0 28.71875 39.96875 A 1.0001 1.0001 0 0 0 28.78125 39.96875 A 1.0001 1.0001 0 0 0 28.8125 40 A 1.0001 1.0001 0 0 0 28.875 40 A 1.0001 1.0001 0 0 0 28.90625 40 A 1.0001 1.0001 0 0 0 28.96875 40 A 1.0001 1.0001 0 0 0 29 40 A 1.0001 1.0001 0 0 0 29.125 40 A 1.0001 1.0001 0 0 0 29.71875 39.6875 A 1.0001 1.0001 0 0 0 29.90625 39.46875 L 39.6875 29.6875 A 1.0001 1.0001 0 1 0 38.28125 28.28125 L 30 36.53125 L 30 1 A 1.0001 1.0001 0 0 0 28.90625 -0.03125 z "
     xlink:href="#path3802"
     style="font-size:medium;font-style:normal;font-variant:normal;font-weight:normal;font-stretch:normal;text-indent:0;text-align:start;text-decoration:none;line-height:normal;letter-spacing:normal;word-spacing:normal;text-transform:none;direction:ltr;block-progression:tb;writing-mode:lr-tb;text-anchor:start;baseline-shift:baseline;color:#000000;fill:#ffffff;fill-opacity:1;stroke:none;stroke-width:2;marker:none;visibility:visible;display:inline;overflow:visible;enable-background:accumulate;font-family:Sans;-inkscape-font-specification:Sans"
     id="path3805"
     inkscape:href="#path3802"
     d="m 29.03125,-1.53125 c 0.01727,2.053e-4 -0.267194,0.032878 -0.25,0.03125 a 1.4876756,1.4876756 0 0 0 -0.15625,0 c 0.0103,-0.00188 -0.166411,0.03379 -0.15625,0.03125 0.0071,-0.00178 -0.04656,0.01792 -0.09375,0.03125 -0.01707,0.00462 -0.01417,0.026663 -0.03125,0.03125 -0.04483,0.012042 -0.09934,0.00177 -0.09375,0 0.01331,-0.00421 -0.200399,0.099084 -0.1875,0.09375 0.0129,-0.00533 -0.231143,0.1001714 -0.21875,0.09375 0.01239,-0.00642 -0.199297,0.1012111 -0.1875,0.09375 0.0118,-0.00746 -0.167363,0.13344582 -0.15625,0.125 0.01111,-0.00845 -0.166597,0.13436822 -0.15625,0.125 0.01035,-0.009368 -0.165755,0.16647151 -0.15625,0.15625 0.0095,-0.0102215 -0.164843,0.16724942 -0.15625,0.15625 0.0086,-0.0109994 -0.132618,0.19919619 -0.125,0.1875 0.0076,-0.0116962 -0.100336,0.19980669 -0.09375,0.1875 0.0066,-0.0123067 -0.09926,0.20032642 -0.09375,0.1875 0.0055,-0.01282642 -0.09813,0.20075155 -0.09375,0.1875 0.0044,-0.0132515 -0.03448,0.23232893 -0.03125,0.21875 0.0032,-0.0135789 -0.06455,0.23255615 -0.0625,0.21875 0.0021,-0.0138061 -8.63e-4,0.20143154 0,0.1875 C 26.531992,0.80051887 26.501144,0.95910016 26.5,1 c -1.86e-4,0.00666 4.7e-5,0.033204 0,0.03125 L 26.5,33 20.84375,27.375 c 0.0062,0.0077 -0.04143,-0.06649 -0.09375,-0.125 -0.03737,-0.04179 -0.09876,-0.06753 -0.09375,-0.0625 0.01202,0.01207 -0.200719,-0.19825 -0.1875,-0.1875 0.01322,0.01075 -0.201772,-0.165558 -0.1875,-0.15625 0.01427,0.0093 -0.265168,-0.132763 -0.25,-0.125 0.01517,0.0078 -0.234647,-0.09988 -0.21875,-0.09375 0.0159,0.0061 -0.266451,-0.09818 -0.25,-0.09375 0.01645,0.0044 -0.266825,-0.06519 -0.25,-0.0625 0.01683,0.0027 -0.298264,-9.12e-4 -0.28125,0 0.01701,9.12e-4 -0.267016,8.74e-4 -0.25,0 0.01702,-8.74e-4 -0.266831,0.0026 -0.25,0 0.01683,-0.0026 -0.266461,0.0669 -0.25,0.0625 0.01646,-0.0044 -0.265911,0.09985 -0.25,0.09375 0.01591,-0.0061 -0.265185,0.101479 -0.25,0.09375 0.01518,-0.0077 -0.233043,0.134276 -0.21875,0.125 0.01429,-0.0093 -0.231993,0.166971 -0.21875,0.15625 0.01324,-0.01072 -0.199548,0.199548 -0.1875,0.1875 0.01205,-0.01205 -0.198221,0.200743 -0.1875,0.1875 0.01072,-0.01324 -0.165526,0.233043 -0.15625,0.21875 0.0093,-0.01429 -0.132729,0.233935 -0.125,0.21875 0.0077,-0.01518 -0.09985,0.265911 -0.09375,0.25 0.0061,-0.01591 -0.09815,0.266461 -0.09375,0.25 0.0044,-0.01646 -0.06515,0.266831 -0.0625,0.25 0.0026,-0.01683 -8.74e-4,0.267016 0,0.25 8.74e-4,-0.01702 9.12e-4,0.267014 0,0.25 -9.12e-4,-0.01701 0.0027,0.298075 0,0.28125 -0.0027,-0.01683 0.06693,0.266451 0.0625,0.25 -0.0044,-0.01645 0.09988,0.265897 0.09375,0.25 -0.0061,-0.0159 0.101513,0.233918 0.09375,0.21875 -0.0078,-0.01517 0.134308,0.264272 0.125,0.25 -0.0093,-0.01427 0.167,0.200719 0.15625,0.1875 -0.01075,-0.01322 0.199575,0.199521 0.1875,0.1875 -0.005,-0.005 0.05196,0.02513 0.09375,0.0625 l -0.03125,0.03125 c 0.05851,0.05232 0.132739,0.09999 0.125,0.09375 l 9.75,9.75 a 1.4876756,1.4876756 0 0 0 0.03125,0.0625 1.4876756,1.4876756 0 0 0 0.03125,0.03125 1.4876756,1.4876756 0 0 0 0.25,0.21875 c 0.02123,0.01953 0.03456,0.06527 0.03125,0.0625 a 1.4876756,1.4876756 0 0 0 0.09375,0.03125 1.4876756,1.4876756 0 0 0 0.09375,0.0625 1.4876756,1.4876756 0 0 0 0.09375,0.0625 1.4876756,1.4876756 0 0 0 0.0625,0.03125 1.4876756,1.4876756 0 0 0 0.03125,0.03125 1.4876756,1.4876756 0 0 0 0.03125,0 c 0.0178,0.0088 0.02939,0.01466 0.0625,0.03125 0.03311,0.01659 0.06677,0.0332 0.0625,0.03125 a 1.4876756,1.4876756 0 0 0 0.03125,0 1.4876756,1.4876756 0 0 0 0.0625,0.03125 1.4876756,1.4876756 0 0 0 0.0625,0.03125 1.4876756,1.4876756 0 0 0 0.09375,0.03125 1.4876756,1.4876756 0 0 0 0.03125,0 1.4876756,1.4876756 0 0 0 0.03125,0 1.4876756,1.4876756 0 0 0 0.0625,0.03125 1.4876756,1.4876756 0 0 0 0.0625,0 1.4876756,1.4876756 0 0 0 0.03125,0.03125 1.4876756,1.4876756 0 0 0 0.0625,0 1.4876756,1.4876756 0 0 0 0.0625,0.03125 1.4876756,1.4876756 0 0 0 0.09375,0 1.4876756,1.4876756 0 0 0 0.125,0.03125 c -0.0051,-1.59e-4 0.0211,0 0.0625,0 0.0207,0 0.01636,-4e-5 0.03125,0 0.01489,4e-5 0.03379,-7.9e-5 0.03125,0 0.01208,9e-6 0.03294,-2.6e-5 0.03125,0 0.0414,0 0.06758,-1.59e-4 0.0625,0 0.01582,5.07e-4 0.02138,-3.47e-4 0.03125,0 0.0099,3.47e-4 0.03328,0 0.03125,0 -0.01016,0 0.16639,-6.35e-4 0.15625,0 a 1.4876756,1.4876756 0 0 0 0.125,-0.03125 c -0.01375,0.002 0.201036,-0.03439 0.1875,-0.03125 -0.01354,0.0031 0.231968,-0.06678 0.21875,-0.0625 -0.01322,0.0043 0.200304,-0.0679 0.1875,-0.0625 -0.0128,0.0054 0.231046,-0.100222 0.21875,-0.09375 -0.0123,0.0065 0.167948,-0.132498 0.15625,-0.125 -0.0117,0.0075 0.198515,-0.13347 0.1875,-0.125 -0.01102,0.0085 0.166501,-0.13438 0.15625,-0.125 -0.0021,0.0019 0.02174,-0.02167 0.03125,-0.03125 0.03804,-0.03833 0.13253,-0.133177 0.125,-0.125 -0.0083,0.0083 0.132642,-0.133916 0.125,-0.125 -0.0017,0.002 0.02282,-0.02058 0.03125,-0.03125 0.02996,-0.03792 0.0992,-0.132371 0.09375,-0.125 l 9.5625,-9.5625 c -0.0077,0.0062 0.06649,-0.04143 0.125,-0.09375 0.04179,-0.03737 0.06753,-0.09876 0.0625,-0.09375 -0.01208,0.01202 0.19825,-0.200719 0.1875,-0.1875 -0.01075,0.01322 0.165558,-0.201772 0.15625,-0.1875 -0.0093,0.01427 0.132763,-0.265168 0.125,-0.25 -0.0078,0.01517 0.09988,-0.234647 0.09375,-0.21875 -0.0061,0.0159 0.09818,-0.266451 0.09375,-0.25 -0.0044,0.01645 0.06519,-0.266825 0.0625,-0.25 -0.0027,0.01683 9.12e-4,-0.298264 0,-0.28125 -9.12e-4,0.01701 -8.74e-4,-0.267016 0,-0.25 8.74e-4,0.01702 -0.0027,-0.266831 0,-0.25 0.0027,0.01683 -0.0669,-0.266461 -0.0625,-0.25 0.0044,0.01646 -0.09985,-0.265911 -0.09375,-0.25 0.0061,0.01591 -0.101479,-0.265185 -0.09375,-0.25 0.0077,0.01518 -0.134276,-0.233043 -0.125,-0.21875 0.0093,0.01429 -0.166971,-0.231993 -0.15625,-0.21875 0.01072,0.01324 -0.199548,-0.199548 -0.1875,-0.1875 0.01205,0.01205 -0.200743,-0.198221 -0.1875,-0.1875 0.01324,0.01072 -0.233043,-0.165526 -0.21875,-0.15625 0.01429,0.0093 -0.233935,-0.132729 -0.21875,-0.125 0.01519,0.0077 -0.265911,-0.09985 -0.25,-0.09375 0.01591,0.0061 -0.266461,-0.09815 -0.25,-0.09375 0.01646,0.0044 -0.266831,-0.06515 -0.25,-0.0625 0.01683,0.0026 -0.267016,-8.74e-4 -0.25,0 0.01702,8.74e-4 -0.267014,9.12e-4 -0.25,0 0.01701,-9.12e-4 -0.298075,0.0027 -0.28125,0 0.01682,-0.0027 -0.266451,0.06693 -0.25,0.0625 0.01645,-0.0044 -0.265897,0.09988 -0.25,0.09375 0.0159,-0.0061 -0.233918,0.101513 -0.21875,0.09375 0.01517,-0.0078 -0.264272,0.134308 -0.25,0.125 0.01427,-0.0093 -0.200719,0.167 -0.1875,0.15625 0.01322,-0.01075 -0.199521,0.199575 -0.1875,0.1875 0.005,-0.005 -0.05638,0.02071 -0.09375,0.0625 L 31.5,32.90625 31.5,1.0625 c -1.35e-4,0.00379 4.64e-4,-0.042518 0,-0.0625 -0.0016,-0.0710454 -0.0322,-0.23219641 -0.03125,-0.21875 0.0012,0.0172282 -0.03429,-0.26700153 -0.03125,-0.25 0.003,0.0170015 -0.06733,-0.26658291 -0.0625,-0.25 0.0048,0.0165829 -0.06906,-0.26597708 -0.0625,-0.25 0.0066,0.01597708 -0.133218,-0.26519088 -0.125,-0.25 0.0082,0.0151909 -0.134783,-0.23298318 -0.125,-0.21875 0.0098,0.0142332 -0.198738,-0.23186481 -0.1875,-0.21875 0.01124,0.0131148 -0.168816,-0.19934837 -0.15625,-0.1875 0.01257,0.0118484 -0.232503,-0.1979482 -0.21875,-0.1875 0.01375,0.010448 -0.233534,-0.13393 -0.21875,-0.125 0.01478,0.00893 -0.234398,-0.1323111 -0.21875,-0.125 0.01565,0.00731 -0.266335,-0.09936 -0.25,-0.09375 0.01634,0.00561 -0.266838,-0.097595 -0.25,-0.09375 0.01684,0.00384 -0.298401,-0.033286 -0.28125,-0.03125 0.01715,0.00204 -0.26727,-0.031455 -0.25,-0.03125 z" /><path
     style="font-size:medium;font-style:normal;font-variant:normal;font-weight:normal;font-stretch:normal;text-indent:0;text-align:start;text-decoration:none;line-height:normal;letter-spacing:normal;word-spacing:normal;text-transform:none;direction:ltr;block-progression:tb;writing-mode:lr-tb;text-anchor:start;baseline-shift:baseline;color:#000000;fill:#dbc361;fill-opacity:1;stroke:none;stroke-width:2;marker:none;visibility:visible;display:inline;overflow:visible;enable-background:accumulate;font-family:Sans;-inkscape-font-specification:Sans"
     d="M 28.90625,-0.03125 A 1.0001,1.0001 0 0 0 28.78125,0 1.0001,1.0001 0 0 0 28,1 l 0,35.625 -8.3125,-8.3125 a 1.0001,1.0001 0 1 0 -1.40625,1.40625 l 9.9375,9.9375 0.03125,0.0625 a 1.0001,1.0001 0 0 0 0.03125,0 1.0001,1.0001 0 0 0 0.125,0.125 1.0001,1.0001 0 0 0 0.03125,0 1.0001,1.0001 0 0 0 0.0625,0.03125 1.0001,1.0001 0 0 0 0.03125,0.03125 1.0001,1.0001 0 0 0 0.0625,0.03125 1.0001,1.0001 0 0 0 0.03125,0 1.0001,1.0001 0 0 0 0.0625,0.03125 1.0001,1.0001 0 0 0 0.03125,0 1.0001,1.0001 0 0 0 0.0625,0 A 1.0001,1.0001 0 0 0 28.8125,40 a 1.0001,1.0001 0 0 0 0.0625,0 1.0001,1.0001 0 0 0 0.03125,0 1.0001,1.0001 0 0 0 0.0625,0 1.0001,1.0001 0 0 0 0.03125,0 1.0001,1.0001 0 0 0 0.125,0 1.0001,1.0001 0 0 0 0.59375,-0.3125 1.0001,1.0001 0 0 0 0.1875,-0.21875 L 39.6875,29.6875 A 1.0001,1.0001 0 1 0 38.28125,28.28125 L 30,36.53125 30,1 a 1.0001,1.0001 0 0 0 -1.09375,-1.03125 z"
     id="path3802"
     inkscape:connector-curvature="0" /><g
     id="g9" /><g
     id="g11" /><g
     id="g13" /><g
     id="g15" /><g
     id="g17" /><g
     id="g19" /><g
     id="g21" /><g
     id="g23" /><g
     id="g25" /><g
     id="g27" /><g
     id="g29" /><g
     id="g31" /><g
     id="g33" /><g
     id="g35" /><g
     id="g37" /></svg>