<?xml version="1.0" encoding="UTF-8" standalone="no"?>
<!-- Generator: Adobe Illustrator 19.0.0, SVG Export Plug-In . SVG Version: 6.00 Build 0)  -->

<svg
   xmlns:dc="http://purl.org/dc/elements/1.1/"
   xmlns:cc="http://creativecommons.org/ns#"
   xmlns:rdf="http://www.w3.org/1999/02/22-rdf-syntax-ns#"
   xmlns:svg="http://www.w3.org/2000/svg"
   xmlns="http://www.w3.org/2000/svg"
   xmlns:sodipodi="http://sodipodi.sourceforge.net/DTD/sodipodi-0.dtd"
   xmlns:inkscape="http://www.inkscape.org/namespaces/inkscape"
   version="1.1"
   id="Layer_1"
   x="0px"
   y="0px"
   viewBox="0 0 489.5 489.5"
   style="enable-background:new 0 0 489.5 489.5;"
   xml:space="preserve"
   inkscape:version="0.48.4 r9939"
   width="100%"
   height="100%"
   sodipodi:docname="gravar-1.svg"
   inkscape:export-filename="/home/atila/NetBeansProjects/sanusb-java-gui/img-src/gravar-1.png"
   inkscape:export-xdpi="4.4099998"
   inkscape:export-ydpi="4.4099998"><metadata
     id="metadata45"><rdf:RDF><cc:Work
         rdf:about=""><dc:format>image/svg+xml</dc:format><dc:type
           rdf:resource="http://purl.org/dc/dcmitype/StillImage" /><dc:title></dc:title></cc:Work></rdf:RDF></metadata><defs
     id="defs43" /><sodipodi:namedview
     pagecolor="#ffffff"
     bordercolor="#666666"
     borderopacity="1"
     objecttolerance="10"
     gridtolerance="10"
     guidetolerance="10"
     inkscape:pageopacity="0"
     inkscape:pageshadow="2"
     inkscape:window-width="1366"
     inkscape:window-height="744"
     id="namedview41"
     showgrid="false"
     inkscape:zoom="1.1501532"
     inkscape:cx="242.14165"
     inkscape:cy="244.75"
     inkscape:window-x="0"
     inkscape:window-y="0"
     inkscape:window-maximized="1"
     inkscape:current-layer="Layer_1" /><path
     style="fill:#3c92ca;stroke:#3c92ca;stroke-width:19.49174118;stroke-miterlimit:4;stroke-opacity:1;stroke-dasharray:none"
     d="m 244.75,21.482105 c -5.51388,0 -9.92498,4.168689 -9.92498,9.379552 V 372.03101 l -74.08645,-70.01504 c -3.90984,-3.69497 -10.12548,-3.69497 -14.03532,0 -3.90984,3.69498 -3.90984,9.56904 0,13.26402 l 91.02909,86.02659 c 1.90479,1.80012 4.51135,2.74755 7.01766,2.74755 2.50631,0 5.11287,-0.94743 7.01766,-2.74755 l 91.02909,-86.02659 c 3.90984,-3.69498 3.90984,-9.56904 0,-13.26402 -3.90984,-3.69497 -10.12548,-3.69497 -14.03532,0 l -74.08645,70.01504 V 30.861657 c 0,-5.210863 -4.4111,-9.379552 -9.92498,-9.379552 z"
     id="path7"
     inkscape:connector-curvature="0" /><path
     style="fill:#2c2f33;stroke:#2c2f33;stroke-width:30;stroke-miterlimit:4;stroke-opacity:1;stroke-dasharray:none"
     d="m 38.75,351.9 c -5.5,0 -9.9,4.4 -9.9,9.9 v 102.8 c 0,5.5 4.4,9.9 9.9,9.9 h 412 c 5.5,0 9.9,-4.4 9.9,-9.9 V 361.8 c 0,-5.5 -4.4,-9.9 -9.9,-9.9 -5.5,0 -9.9,4.4 -9.9,9.9 v 92.9 H 48.65 v -92.9 c 0,-5.5 -4.4,-9.9 -9.9,-9.9 z"
     id="path9"
     inkscape:connector-curvature="0" /><g
     id="g11" /><g
     id="g13" /><g
     id="g15" /><g
     id="g17" /><g
     id="g19" /><g
     id="g21" /><g
     id="g23" /><g
     id="g25" /><g
     id="g27" /><g
     id="g29" /><g
     id="g31" /><g
     id="g33" /><g
     id="g35" /><g
     id="g37" /><g
     id="g39" /></svg>